<svg height="512pt" viewBox="0 0 512 512" width="512pt" xmlns="http://www.w3.org/2000/svg"><path d="m503.464844 503.464844v-25.597656c0-31.683594-12.585938-62.070313-34.988282-84.476563-22.40625-22.402344-52.792968-34.992187-84.476562-34.992187h-256c-65.980469 0-119.464844 53.488281-119.464844 119.46875v25.597656zm0 0" fill="#cad9fc"/><path d="m187.734375 335.800781h136.53125v65.265625h-136.53125zm0 0" fill="#a4c2f7"/><path d="m411.476562 426.667969h5.292969c35.753907 0 66.816407 13.90625 74.835938 33.449219l7.9375 19.371093c2.582031 6.160157 3.914062 12.773438 3.921875 19.457031v4.519532h-494.929688v-4.519532c.007813-6.683593 1.339844-13.296874 3.921875-19.457031l7.9375-19.371093c8.019531-19.542969 39.082031-33.449219 74.835938-33.449219zm0 0" fill="#e8edfc"/><path d="m204.800781 264.535156h102.398438c9.425781 0 17.066406 7.640625 17.066406 17.066406v59.730469c0 9.425781-7.640625 17.066407-17.066406 17.066407h-102.398438c-9.425781 0-17.066406-7.640626-17.066406-17.066407v-59.730469c0-9.425781 7.640625-17.066406 17.066406-17.066406zm0 0" fill="#e8edfc"/><path d="m324.265625 341.332031v-59.730469c-.027344-9.414062-7.652344-17.039062-17.066406-17.066406h-102.398438c-9.414062.027344-17.039062 7.652344-17.066406 17.066406v76.796876c-15.847656.011718-31.046875-6.277344-42.25-17.480469-11.207031-11.207031-17.496094-26.40625-17.484375-42.25v-119.46875c0-34.132813 17.066406-170.664063 68.265625-170.664063v68.265625c.027344 9.414063 7.652344 17.039063 17.066406 17.066407h85.335938c9.414062-.027344 17.039062-7.652344 17.066406-17.066407v-68.265625c51.199219 0 68.265625 136.53125 68.265625 170.664063v119.46875c.011719 15.84375-6.277344 31.042969-17.484375 42.25-11.203125 11.203125-26.402344 17.492187-42.25 17.480469zm0 0" fill="#cad9fc"/><path d="m435.199219 503.464844h-358.398438l28.910157-93.28125c1.582031-5.253906 10.433593-9.117188 20.871093-9.117188h258.890625c10.4375 0 19.289063 3.863282 20.871094 9.117188zm0 0" fill="#e8edfc"/><path d="m237.226562 212.015625c-9.644531 9.734375-23.882812 13.332031-36.996093 9.355469-13.578125-1.875-25-11.105469-29.683594-23.984375 0 0 5.484375-25.003907 38.824219-17.691407 25.003906 5.484376 27.855468 32.320313 27.855468 32.320313zm0 0" fill="#fff"/><path d="m274.652344 212.015625c9.644531 9.734375 23.882812 13.332031 36.996094 9.355469 13.574218-1.875 25-11.105469 29.683593-23.984375 0 0-5.484375-25.003907-38.824219-17.691407-25.003906 5.484376-27.855468 32.320313-27.855468 32.320313zm0 0" fill="#fff"/><path d="m324.265625 469.332031c0-18.851562-30.5625-34.132812-68.265625-34.132812s-68.265625 15.28125-68.265625 34.132812c0 18.851563 30.5625 34.132813 68.265625 34.132813s68.265625-15.28125 68.265625-34.132813zm0 0" fill="#e8edfc"/><path d="m296.339844 294.398438c-6.894532 13.496093-28.414063 15.402343-40.167969 15.402343-11.78125 0-33.277344-1.90625-40.171875-15.402343 13.148438 3.242187 26.628906 4.929687 40.171875 5.035156 13.539063-.105469 27.023437-1.792969 40.167969-5.035156zm0 0" fill="#428dff"/><path d="m34.132812 498.945312v-21.078124c0-65.980469 53.488282-119.46875 119.46875-119.46875h-25.601562c-65.980469 0-119.464844 53.488281-119.464844 119.46875v25.597656h25.597656zm0 0" fill="#fff"/><path d="m187.734375 358.398438h25.597656c-15.84375.011718-31.042969-6.277344-42.25-17.480469-11.203125-11.207031-17.492187-26.40625-17.480469-42.25v-119.46875c0-27.648438 11.203126-122.453125 42.664063-157.496094v-13.167969c-51.199219 0-68.265625 136.53125-68.265625 170.664063v119.46875c-.011719 15.84375 6.277344 31.042969 17.484375 42.25 11.203125 11.203125 26.402344 17.492187 42.25 17.480469zm0 0" fill="#fff"/><g fill="#428dff"><path d="m435.199219 512h-358.398438c-2.710937.003906-5.265625-1.285156-6.871093-3.46875-1.609376-2.183594-2.085938-5-1.28125-7.589844l28.910156-93.28125c3.132812-10.425781 16.839844-15.125 29.019531-15.125h258.894531c12.175782 0 25.886719 4.699219 29.042969 15.1875l28.839844 93.214844c.800781 2.59375.328125 5.410156-1.28125 7.59375s-4.164063 3.46875-6.875 3.46875zm-346.828125-17.066406h335.257812l-25.4375-82.226563c-3.824218-2.304687-8.261718-3.386719-12.71875-3.105469h-258.894531c-4.574219-.398437-9.140625.835938-12.894531 3.480469zm0 0"/><path d="m324.265625 409.601562h-136.53125c-4.714844 0-8.535156-3.820312-8.535156-8.535156v-42.667968c0-4.710938 3.820312-8.53125 8.535156-8.53125h136.53125c4.714844 0 8.535156 3.820312 8.535156 8.53125v42.667968c0 4.714844-3.820312 8.535156-8.535156 8.535156zm-128-17.066406h119.46875v-25.601562h-119.46875zm0 0"/><path d="m324.265625 366.933594h-136.53125c-37.6875-.042969-68.222656-30.582032-68.269531-68.265625v-119.46875c0-27.847657 14.167968-179.199219 76.800781-179.199219 4.714844 0 8.535156 3.820312 8.535156 8.535156v68.265625c.003907 4.710938 3.820313 8.527344 8.53125 8.53125h85.335938c4.710937-.003906 8.527343-3.820312 8.53125-8.53125v-68.265625c0-4.714844 3.820312-8.535156 8.535156-8.535156 62.632813 0 76.800781 151.351562 76.800781 179.199219v119.46875c-.046875 37.683593-30.582031 68.222656-68.269531 68.265625zm-136.53125-348.007813c-35.164063 15.609375-51.199219 125.234375-51.199219 160.273438v119.46875c.027344 28.261719 22.933594 51.167969 51.199219 51.199219h136.53125c28.265625-.03125 51.171875-22.9375 51.199219-51.199219v-119.46875c0-35.039063-16.035156-144.664063-51.199219-160.273438v57.875c-.015625 14.132813-11.46875 25.582031-25.597656 25.597657h-85.335938c-14.128906-.015626-25.582031-11.464844-25.597656-25.597657zm0 0"/><path d="m102.398438 512h-93.863282c-4.714844 0-8.535156-3.820312-8.535156-8.535156v-4.519532c.0117188-7.796874 1.566406-15.515624 4.570312-22.710937l7.929688-19.347656c9.363281-22.820313 43.382812-38.753907 82.730469-38.753907h5.378906c4.710937 0 8.53125 3.820313 8.53125 8.535157 0 4.710937-3.820313 8.53125-8.53125 8.53125h-5.378906c-31.570313 0-60.351563 12.109375-66.941407 28.160156l-7.933593 19.371094c-1.625 3.894531-2.667969 8.003906-3.09375 12.203125h85.136719c4.714843 0 8.535156 3.820312 8.535156 8.53125 0 4.714844-3.820313 8.535156-8.535156 8.535156zm0 0"/><path d="m503.464844 512h-93.863282c-4.714843 0-8.535156-3.820312-8.535156-8.535156 0-4.710938 3.820313-8.53125 8.535156-8.53125h85.136719c-.421875-4.191406-1.460937-8.296875-3.085937-12.183594l-7.945313-19.398438c-6.585937-16.042968-35.367187-28.152343-66.9375-28.152343h-5.292969c-4.710937 0-8.53125-3.820313-8.53125-8.53125 0-4.714844 3.820313-8.535157 8.53125-8.535157h5.292969c39.347657 0 73.371094 15.933594 82.734375 38.742188l7.933594 19.382812c3 7.1875 4.550781 14.898438 4.5625 22.6875v4.519532c0 4.714844-3.820312 8.535156-8.535156 8.535156zm0 0"/><path d="m307.199219 366.933594h-102.398438c-14.132812-.015625-25.585937-11.46875-25.601562-25.601563v-59.730469c.015625-14.132812 11.46875-25.585937 25.601562-25.601562h102.398438c14.132812.015625 25.585937 11.46875 25.601562 25.601562v59.730469c-.015625 14.132813-11.46875 25.585938-25.601562 25.601563zm-102.398438-93.867188c-4.710937.003906-8.53125 3.824219-8.535156 8.535156v59.730469c.003906 4.710938 3.824219 8.53125 8.535156 8.535157h102.398438c4.710937-.003907 8.53125-3.824219 8.535156-8.535157v-59.730469c-.003906-4.710937-3.824219-8.53125-8.535156-8.535156zm0 0"/><path d="m211.011719 231.132812c-4.242188-.015624-8.472657-.496093-12.613281-1.425781-16.738282-2.546875-30.667969-14.203125-36.125-30.230469-.324219-1.285156-.347657-2.625-.0625-3.917968 2.527343-11.535156 16.011718-31.417969 48.988281-24.199219 30.660156 6.730469 34.367187 38.40625 34.511719 39.757813.238281 2.25-.425782 4.503906-1.847657 6.265624-8.457031 9.105469-20.429687 14.117188-32.851562 13.75zm-31.425781-33.933593c4.570312 8.53125 12.902343 14.40625 22.472656 15.84375 8.800781 2.476562 18.242187.988281 25.855468-4.074219-2.265624-10.28125-10.15625-18.394531-20.371093-20.945312-19.507813-4.257813-25.953125 4.535156-27.957031 9.175781zm0 0"/><path d="m300.867188 231.132812c-12.421876.367188-24.394532-4.644531-32.855469-13.75-1.417969-1.761718-2.085938-4.015624-1.847657-6.265624.144532-1.351563 3.859376-33.023438 34.515626-39.757813 32.992187-7.242187 46.464843 12.675781 48.988281 24.199219.285156 1.292968.265625 2.632812-.0625 3.917968-5.457031 16.027344-19.386719 27.683594-36.125 30.230469-4.140625.929688-8.371094 1.410157-12.613281 1.425781zm-16.902344-22.164062c7.617187 5.054688 17.054687 6.542969 25.859375 4.074219 9.570312-1.453125 17.898437-7.328125 22.476562-15.859375-1.960937-4.558594-8.40625-13.417969-27.964843-9.160156-10.207032 2.5625-18.09375 10.667968-20.371094 20.945312zm0 0"/><path d="m256 512c-43.785156 0-76.800781-18.339844-76.800781-42.667969 0-24.324219 33.015625-42.664062 76.800781-42.664062s76.800781 18.339843 76.800781 42.664062c0 24.328125-33.015625 42.667969-76.800781 42.667969zm0-68.265625c-34.1875 0-59.734375 13.515625-59.734375 25.597656 0 12.085938 25.546875 25.601563 59.734375 25.601563s59.734375-13.515625 59.734375-25.601563c0-12.082031-25.546875-25.597656-59.734375-25.597656zm0 0"/></g><path d="m128 366.933594c-61.191406.179687-110.753906 49.742187-110.933594 110.933594h-17.066406c.179688-70.617188 57.382812-127.820313 128-128zm0 0" fill="#fff"/><path d="m86.261719 366.046875c1.570312 4.238281 6.101562 6.589844 10.472656 5.433594 10.175781-2.882813 20.6875-4.410157 31.265625-4.546875v-17.066406c-12.203125.136718-24.332031 1.898437-36.070312 5.238281-2.257813.617187-4.152344 2.152343-5.226563 4.230469-1.078125 2.078124-1.238281 4.507812-.441406 6.710937zm0 0" fill="#428dff"/><path d="m0 477.867188h17.066406c.066406-23.925782 7.847656-47.191407 22.1875-66.339844 1.507813-2.171875 3.160156-4.238282 4.941406-6.1875 2.871094-3.554688 2.5625-8.714844-.710937-11.902344-1.675781-1.605469-3.941406-2.4375-6.253906-2.300781-2.316407.140625-4.464844 1.234375-5.9375 3.027343-2.046875 2.257813-3.949219 4.640626-5.703125 7.132813-16.546875 22.105469-25.5195315 48.957031-25.589844 76.570313zm0 0" fill="#428dff"/><path d="m68.039062 384.632812c1.804688-1.164062 3.085938-2.980468 3.574219-5.066406l.203125-1.621094c.035156-.582031-.003906-1.160156-.113281-1.730468-.03125-.546875-.136719-1.085938-.316406-1.605469-.191407-.539063-.414063-1.070313-.675781-1.582031-1.09375-1.972656-2.949219-3.40625-5.132813-3.964844-1.144531-.226562-2.316406-.226562-3.460937 0-3.617188.558594-6.5 3.3125-7.226563 6.902344-.171875 1.128906-.113281 2.277344.171875 3.382812.253906 1.089844.722656 2.117188 1.386719 3.015625 1.375 1.761719 3.328125 2.980469 5.515625 3.441407 2.097656.277343 4.230468-.132813 6.074218-1.171876zm0 0" fill="#428dff"/><path d="m8.535156 512c-4.714844 0-8.535156-3.820312-8.535156-8.535156v-25.597656c0-4.714844 3.820312-8.535157 8.535156-8.535157 4.710938 0 8.53125 3.820313 8.53125 8.535157v25.597656c0 4.714844-3.820312 8.535156-8.53125 8.535156zm0 0" fill="#428dff"/><path d="m179.199219 366.933594h-51.199219c-4.710938 0-8.535156-3.820313-8.535156-8.535156 0-4.710938 3.824218-8.53125 8.535156-8.53125h51.199219c4.714843 0 8.535156 3.820312 8.535156 8.53125 0 4.714843-3.820313 8.535156-8.535156 8.535156zm0 0" fill="#428dff"/><path d="m503.464844 512c-4.710938 0-8.53125-3.820312-8.53125-8.535156v-25.597656c-.070313-61.238282-49.695313-110.863282-110.933594-110.933594h-51.199219c-4.714843 0-8.535156-3.820313-8.535156-8.535156 0-4.710938 3.820313-8.53125 8.535156-8.53125h51.199219c70.660156.078124 127.921875 57.339843 128 128v25.597656c0 4.714844-3.820312 8.535156-8.535156 8.535156zm0 0" fill="#428dff"/></svg>